# xmcd
#
# Track frame offsets:
#	150
#	17280
#	36595
#	55230
#	74260
#	89927
#	110910
#	126517
#	144505
#	165665
#	185665
#	206820
#	224637
#	241572
#	258882
#
# Disc length: 3676 seconds
#
# Revision: 3
# Processed by: cddbd v1.5.2PL0 Copyright (c) Steve Scherf et al.
# Submitted via: EasyCDDAExtractor 15.3.0.1
#
DISCID=eb0e5a0f
DTITLE=Patricia Manterola - Que El Ritmo No Pare
DYEAR=2002
DGENRE=Latin
TTITLE0=Que El Ritmo No Pare
TTITLE1=Salsa
TTITLE2=Ojos Negros
TTITLE3=I'll See You Again
TTITLE4=Necesito Tu Amor
TTITLE5=Quiero Que Quieras Volver
TTITLE6=Bandidos
TTITLE7=Libre
TTITLE8=Take My Heart
TTITLE9=When ''U'' Move Like That
TTITLE10=Tu Mi Luz
TTITLE11=Tell You, Tell Me
TTITLE12=The Rhythm
TTITLE13=Que Mexico No Pare (Bonus Track)
TTITLE14=Que El Futbol No Pare (Bonus Track)
EXTD=
EXTT0=
EXTT1=
EXTT2=
EXTT3=
EXTT4=
EXTT5=
EXTT6=
EXTT7=
EXTT8=
EXTT9=
EXTT10=
EXTT11=
EXTT12=
EXTT13=
EXTT14=
PLAYORDER=
